<?xml version="1.0" encoding="UTF-8" standalone="no"?>
<!-- Created with Inkscape (http://www.inkscape.org/) -->

<svg
   width="210mm"
   height="297mm"
   viewBox="0 0 210 297"
   version="1.1"
   id="svg173216"
   inkscape:version="1.1.2 (0a00cf5339, 2022-02-04)"
   sodipodi:docname="pfarrei.svg"
   xmlns:inkscape="http://www.inkscape.org/namespaces/inkscape"
   xmlns:sodipodi="http://sodipodi.sourceforge.net/DTD/sodipodi-0.dtd"
   xmlns="http://www.w3.org/2000/svg"
   xmlns:svg="http://www.w3.org/2000/svg">
  <sodipodi:namedview
     id="namedview173218"
     pagecolor="#ffffff"
     bordercolor="#666666"
     borderopacity="1.0"
     inkscape:pageshadow="2"
     inkscape:pageopacity="0.0"
     inkscape:pagecheckerboard="0"
     inkscape:document-units="mm"
     showgrid="false"
     inkscape:zoom="0.52787981"
     inkscape:cx="359.93041"
     inkscape:cy="539.89562"
     inkscape:window-width="1850"
     inkscape:window-height="1016"
     inkscape:window-x="70"
     inkscape:window-y="27"
     inkscape:window-maximized="1"
     inkscape:current-layer="layer1" />
  <defs
     id="defs173213" />
  <g
     inkscape:label="Calque 1"
     inkscape:groupmode="layer"
     id="layer1">
    <path
       style="fill:#000000;stroke-width:1"
       d="m 47.549001,264.86788 c -10.06748,-11.9645 -11.43028,-28.4567 -3.67357,-44.45839 7.77463,-16.03881 34.96964,-44.18071 42.69424,-44.18071 5.94829,0 6.65726,-2.30647 8.01027,-26.05771 2.66556,-46.79171 2.40997,-55.584384 -1.69144,-58.173174 -2.17993,-1.37594 -12.49154,-2.53019 -22.91453,-2.5648 l -18.951,-0.0597 -1.02425,-10.723581 c -1.29499,-13.56199 2.5956,-16.01434 25.50238,-16.07534 12.21924,-0.0358 18.26912,-1.34012 18.49068,-3.99648 0.18145,-2.17146 0.536,-13.47007 0.78908,-25.10796 0.52764,-24.2800703 3.78363,-29.3031903 17.096479,-26.3791903 9.22362,2.02582 9.35684,2.35088 8.8674,21.6393603 -0.84996,33.48769 -0.0836,34.61639 23.58638,35.02395 l 20.397,0.35096 1.02425,10.72346 c 1.29941,13.609381 -2.99456,16.417351 -23.87599,15.613351 -9.09421,-0.34977 -17.27101,0.0955 -18.17063,0.99918 -2.15773,2.15773 -4.52854,69.125484 -2.62306,74.091184 0.81295,2.11833 9.79495,9.06604 19.96009,15.43942 12.3841,7.76472 20.2824,15.38189 23.93854,23.08656 3.001,6.3242 8.36959,12.72623 9.7084,15.75051 2.88592,6.51938 2.26994,9.0461 -0.38559,18.2 -1.17824,4.06059 -4.68253,9.36424 -4.73781,13.31584 -0.0597,4.59217 -0.88935,10.15379 -5.6607,11.96796 -13.43295,19.93573 -104.939459,37.9963 -116.356619,1.57529 z m 88.060599,-4.47936 c 8.30477,-5.46422 15.90189,-13.05751 16.88232,-16.87397 4.78747,-18.63334 -15.65525,-44.97075 -39.99203,-51.52391 -15.533249,-4.18271 -19.988979,-2.83722 -35.971799,10.86205 -12.21829,10.47265 -12.39222,10.92998 -12.07623,31.76677 0.36052,23.74778 4.85945,31.45639 21.05763,36.07804 15.180729,4.33145 33.613639,0.53839 50.100109,-10.30898 z"
       id="path172540"
       sodipodi:nodetypes="cssssccscssssscsscssssscccsssssss" />
  </g>
</svg>
